<svg width="215" height="46" viewBox="0 0 215 46" fill="none" xmlns="http://www.w3.org/2000/svg">
<path d="M92.2374 42.0905V40.9305H93.7274C94.0408 40.9305 94.2808 40.8505 94.4474 40.6905C94.6208 40.5305 94.7074 40.3138 94.7074 40.0405C94.7074 39.7872 94.6241 39.5772 94.4574 39.4105C94.2908 39.2438 94.0508 39.1605 93.7374 39.1605H92.2374V37.9405H93.9174C94.3841 37.9405 94.7941 38.0305 95.1474 38.2105C95.5008 38.3838 95.7774 38.6272 95.9774 38.9405C96.1774 39.2538 96.2774 39.6138 96.2774 40.0205C96.2774 40.4338 96.1774 40.7972 95.9774 41.1105C95.7774 41.4172 95.4974 41.6572 95.1374 41.8305C94.7774 42.0038 94.3541 42.0905 93.8674 42.0905H92.2374ZM91.0374 45.0005V37.9405H92.6074V45.0005H91.0374ZM94.8774 45.0005L92.6774 41.9605L94.1174 41.5705L96.7374 45.0005H94.8774ZM100.755 45.1205C100.222 45.1205 99.7284 45.0272 99.2751 44.8405C98.8284 44.6538 98.4351 44.3938 98.0951 44.0605C97.7551 43.7272 97.4917 43.3405 97.3051 42.9005C97.1184 42.4538 97.0251 41.9738 97.0251 41.4605C97.0251 40.9405 97.1184 40.4605 97.3051 40.0205C97.4917 39.5805 97.7517 39.1972 98.0851 38.8705C98.4184 38.5372 98.8084 38.2805 99.2551 38.1005C99.7084 37.9138 100.202 37.8205 100.735 37.8205C101.262 37.8205 101.748 37.9138 102.195 38.1005C102.648 38.2805 103.042 38.5372 103.375 38.8705C103.715 39.1972 103.978 39.5838 104.165 40.0305C104.352 40.4705 104.445 40.9505 104.445 41.4705C104.445 41.9838 104.352 42.4638 104.165 42.9105C103.978 43.3505 103.718 43.7372 103.385 44.0705C103.052 44.3972 102.658 44.6538 102.205 44.8405C101.758 45.0272 101.275 45.1205 100.755 45.1205ZM100.735 43.6905C101.155 43.6905 101.522 43.5972 101.835 43.4105C102.155 43.2238 102.402 42.9638 102.575 42.6305C102.748 42.2905 102.835 41.9005 102.835 41.4605C102.835 41.1272 102.785 40.8272 102.685 40.5605C102.585 40.2872 102.442 40.0538 102.255 39.8605C102.068 39.6605 101.845 39.5105 101.585 39.4105C101.332 39.3038 101.048 39.2505 100.735 39.2505C100.315 39.2505 99.9451 39.3438 99.6251 39.5305C99.3117 39.7105 99.0684 39.9672 98.8951 40.3005C98.7217 40.6272 98.6351 41.0138 98.6351 41.4605C98.6351 41.7938 98.6851 42.0972 98.7851 42.3705C98.8851 42.6438 99.0251 42.8805 99.2051 43.0805C99.3917 43.2738 99.6151 43.4238 99.8751 43.5305C100.135 43.6372 100.422 43.6905 100.735 43.6905ZM108.909 45.1205C108.376 45.1205 107.883 45.0272 107.429 44.8405C106.983 44.6538 106.589 44.3938 106.249 44.0605C105.909 43.7272 105.646 43.3405 105.459 42.9005C105.273 42.4538 105.179 41.9738 105.179 41.4605C105.179 40.9405 105.273 40.4605 105.459 40.0205C105.646 39.5805 105.906 39.1972 106.239 38.8705C106.573 38.5372 106.963 38.2805 107.409 38.1005C107.863 37.9138 108.356 37.8205 108.889 37.8205C109.416 37.8205 109.903 37.9138 110.349 38.1005C110.803 38.2805 111.196 38.5372 111.529 38.8705C111.869 39.1972 112.133 39.5838 112.319 40.0305C112.506 40.4705 112.599 40.9505 112.599 41.4705C112.599 41.9838 112.506 42.4638 112.319 42.9105C112.133 43.3505 111.873 43.7372 111.539 44.0705C111.206 44.3972 110.813 44.6538 110.359 44.8405C109.913 45.0272 109.429 45.1205 108.909 45.1205ZM108.889 43.6905C109.309 43.6905 109.676 43.5972 109.989 43.4105C110.309 43.2238 110.556 42.9638 110.729 42.6305C110.903 42.2905 110.989 41.9005 110.989 41.4605C110.989 41.1272 110.939 40.8272 110.839 40.5605C110.739 40.2872 110.596 40.0538 110.409 39.8605C110.223 39.6605 109.999 39.5105 109.739 39.4105C109.486 39.3038 109.203 39.2505 108.889 39.2505C108.469 39.2505 108.099 39.3438 107.779 39.5305C107.466 39.7105 107.223 39.9672 107.049 40.3005C106.876 40.6272 106.789 41.0138 106.789 41.4605C106.789 41.7938 106.839 42.0972 106.939 42.3705C107.039 42.6438 107.179 42.8805 107.359 43.0805C107.546 43.2738 107.769 43.4238 108.029 43.5305C108.289 43.6372 108.576 43.6905 108.889 43.6905ZM113.596 45.0005V37.9405H115.166V45.0005H113.596ZM114.796 42.2305V40.8805H118.326V42.2305H114.796ZM114.796 39.2905V37.9405H118.486V39.2905H114.796ZM124.651 45.1105C124.124 45.1105 123.634 45.0205 123.181 44.8405C122.734 44.6538 122.341 44.3938 122.001 44.0605C121.668 43.7272 121.408 43.3405 121.221 42.9005C121.034 42.4538 120.941 41.9738 120.941 41.4605C120.941 40.9472 121.034 40.4705 121.221 40.0305C121.408 39.5838 121.668 39.1972 122.001 38.8705C122.334 38.5438 122.724 38.2905 123.171 38.1105C123.624 37.9238 124.114 37.8305 124.641 37.8305C125.201 37.8305 125.698 37.9205 126.131 38.1005C126.571 38.2805 126.954 38.5272 127.281 38.8405L126.231 39.9005C126.044 39.7005 125.818 39.5438 125.551 39.4305C125.291 39.3172 124.988 39.2605 124.641 39.2605C124.334 39.2605 124.051 39.3138 123.791 39.4205C123.538 39.5205 123.318 39.6672 123.131 39.8605C122.951 40.0538 122.808 40.2872 122.701 40.5605C122.601 40.8338 122.551 41.1338 122.551 41.4605C122.551 41.7938 122.601 42.0972 122.701 42.3705C122.808 42.6438 122.951 42.8772 123.131 43.0705C123.318 43.2638 123.538 43.4138 123.791 43.5205C124.051 43.6272 124.334 43.6805 124.641 43.6805C125.001 43.6805 125.314 43.6238 125.581 43.5105C125.848 43.3972 126.078 43.2405 126.271 43.0405L127.331 44.1005C126.991 44.4138 126.601 44.6605 126.161 44.8405C125.728 45.0205 125.224 45.1105 124.651 45.1105ZM131.282 45.1205C130.749 45.1205 130.256 45.0272 129.802 44.8405C129.356 44.6538 128.962 44.3938 128.622 44.0605C128.282 43.7272 128.019 43.3405 127.832 42.9005C127.646 42.4538 127.552 41.9738 127.552 41.4605C127.552 40.9405 127.646 40.4605 127.832 40.0205C128.019 39.5805 128.279 39.1972 128.612 38.8705C128.946 38.5372 129.336 38.2805 129.782 38.1005C130.236 37.9138 130.729 37.8205 131.262 37.8205C131.789 37.8205 132.276 37.9138 132.722 38.1005C133.176 38.2805 133.569 38.5372 133.902 38.8705C134.242 39.1972 134.506 39.5838 134.692 40.0305C134.879 40.4705 134.972 40.9505 134.972 41.4705C134.972 41.9838 134.879 42.4638 134.692 42.9105C134.506 43.3505 134.246 43.7372 133.912 44.0705C133.579 44.3972 133.186 44.6538 132.732 44.8405C132.286 45.0272 131.802 45.1205 131.282 45.1205ZM131.262 43.6905C131.682 43.6905 132.049 43.5972 132.362 43.4105C132.682 43.2238 132.929 42.9638 133.102 42.6305C133.276 42.2905 133.362 41.9005 133.362 41.4605C133.362 41.1272 133.312 40.8272 133.212 40.5605C133.112 40.2872 132.969 40.0538 132.782 39.8605C132.596 39.6605 132.372 39.5105 132.112 39.4105C131.859 39.3038 131.576 39.2505 131.262 39.2505C130.842 39.2505 130.472 39.3438 130.152 39.5305C129.839 39.7105 129.596 39.9672 129.422 40.3005C129.249 40.6272 129.162 41.0138 129.162 41.4605C129.162 41.7938 129.212 42.0972 129.312 42.3705C129.412 42.6438 129.552 42.8805 129.732 43.0805C129.919 43.2738 130.142 43.4238 130.402 43.5305C130.662 43.6372 130.949 43.6905 131.262 43.6905ZM135.969 45.0005V37.9405H137.069L137.539 39.3505V45.0005H135.969ZM140.839 45.0005L136.679 39.6705L137.069 37.9405L141.229 43.2705L140.839 45.0005ZM140.839 45.0005L140.419 43.5905V37.9405H141.989V45.0005H140.839ZM145.335 45.1105C144.755 45.1105 144.255 45.0172 143.835 44.8305C143.422 44.6372 143.042 44.3472 142.695 43.9605L143.715 42.9505C143.942 43.2105 144.192 43.4138 144.465 43.5605C144.745 43.7005 145.068 43.7705 145.435 43.7705C145.768 43.7705 146.025 43.7105 146.205 43.5905C146.392 43.4705 146.485 43.3038 146.485 43.0905C146.485 42.8972 146.425 42.7405 146.305 42.6205C146.185 42.5005 146.025 42.3972 145.825 42.3105C145.632 42.2238 145.415 42.1405 145.175 42.0605C144.942 41.9805 144.708 41.8905 144.475 41.7905C144.242 41.6838 144.025 41.5538 143.825 41.4005C143.632 41.2405 143.475 41.0438 143.355 40.8105C143.235 40.5705 143.175 40.2705 143.175 39.9105C143.175 39.4772 143.278 39.1038 143.485 38.7905C143.698 38.4772 143.992 38.2405 144.365 38.0805C144.738 37.9138 145.168 37.8305 145.655 37.8305C146.148 37.8305 146.598 37.9172 147.005 38.0905C147.418 38.2638 147.758 38.5005 148.025 38.8005L147.005 39.8105C146.792 39.5905 146.575 39.4272 146.355 39.3205C146.142 39.2138 145.898 39.1605 145.625 39.1605C145.352 39.1605 145.135 39.2138 144.975 39.3205C144.815 39.4205 144.735 39.5672 144.735 39.7605C144.735 39.9405 144.795 40.0872 144.915 40.2005C145.035 40.3072 145.192 40.4005 145.385 40.4805C145.585 40.5605 145.802 40.6405 146.035 40.7205C146.275 40.8005 146.512 40.8938 146.745 41.0005C146.978 41.1072 147.192 41.2438 147.385 41.4105C147.585 41.5705 147.745 41.7772 147.865 42.0305C147.985 42.2772 148.045 42.5838 148.045 42.9505C148.045 43.6238 147.805 44.1538 147.325 44.5405C146.845 44.9205 146.182 45.1105 145.335 45.1105ZM150.512 45.0005V38.0405H152.082V45.0005H150.512ZM148.302 39.3105V37.9405H154.292V39.3105H148.302ZM156.368 42.0905V40.9305H157.858C158.172 40.9305 158.412 40.8505 158.578 40.6905C158.752 40.5305 158.838 40.3138 158.838 40.0405C158.838 39.7872 158.755 39.5772 158.588 39.4105C158.422 39.2438 158.182 39.1605 157.868 39.1605H156.368V37.9405H158.048C158.515 37.9405 158.925 38.0305 159.278 38.2105C159.632 38.3838 159.908 38.6272 160.108 38.9405C160.308 39.2538 160.408 39.6138 160.408 40.0205C160.408 40.4338 160.308 40.7972 160.108 41.1105C159.908 41.4172 159.628 41.6572 159.268 41.8305C158.908 42.0038 158.485 42.0905 157.998 42.0905H156.368ZM155.168 45.0005V37.9405H156.738V45.0005H155.168ZM159.008 45.0005L156.808 41.9605L158.248 41.5705L160.868 45.0005H159.008ZM164.375 45.1105C163.795 45.1105 163.282 44.9872 162.835 44.7405C162.395 44.4938 162.049 44.1538 161.795 43.7205C161.549 43.2805 161.425 42.7805 161.425 42.2205V37.9405H163.005V42.3105C163.005 42.5905 163.065 42.8338 163.185 43.0405C163.305 43.2472 163.469 43.4072 163.675 43.5205C163.889 43.6272 164.122 43.6805 164.375 43.6805C164.642 43.6805 164.875 43.6272 165.075 43.5205C165.275 43.4072 165.432 43.2505 165.545 43.0505C165.665 42.8438 165.725 42.6005 165.725 42.3205V37.9405H167.305V42.2305C167.305 42.7905 167.182 43.2872 166.935 43.7205C166.689 44.1538 166.345 44.4938 165.905 44.7405C165.465 44.9872 164.955 45.1105 164.375 45.1105ZM171.907 45.1105C171.38 45.1105 170.89 45.0205 170.437 44.8405C169.99 44.6538 169.597 44.3938 169.257 44.0605C168.924 43.7272 168.664 43.3405 168.477 42.9005C168.29 42.4538 168.197 41.9738 168.197 41.4605C168.197 40.9472 168.29 40.4705 168.477 40.0305C168.664 39.5838 168.924 39.1972 169.257 38.8705C169.59 38.5438 169.98 38.2905 170.427 38.1105C170.88 37.9238 171.37 37.8305 171.897 37.8305C172.457 37.8305 172.954 37.9205 173.387 38.1005C173.827 38.2805 174.21 38.5272 174.537 38.8405L173.487 39.9005C173.3 39.7005 173.074 39.5438 172.807 39.4305C172.547 39.3172 172.244 39.2605 171.897 39.2605C171.59 39.2605 171.307 39.3138 171.047 39.4205C170.794 39.5205 170.574 39.6672 170.387 39.8605C170.207 40.0538 170.064 40.2872 169.957 40.5605C169.857 40.8338 169.807 41.1338 169.807 41.4605C169.807 41.7938 169.857 42.0972 169.957 42.3705C170.064 42.6438 170.207 42.8772 170.387 43.0705C170.574 43.2638 170.794 43.4138 171.047 43.5205C171.307 43.6272 171.59 43.6805 171.897 43.6805C172.257 43.6805 172.57 43.6238 172.837 43.5105C173.104 43.3972 173.334 43.2405 173.527 43.0405L174.587 44.1005C174.247 44.4138 173.857 44.6605 173.417 44.8405C172.984 45.0205 172.48 45.1105 171.907 45.1105ZM177.064 45.0005V38.0405H178.634V45.0005H177.064ZM174.854 39.3105V37.9405H180.844V39.3105H174.854ZM181.721 45.0005V37.9405H183.291V45.0005H181.721ZM188.021 45.1205C187.487 45.1205 186.994 45.0272 186.541 44.8405C186.094 44.6538 185.701 44.3938 185.361 44.0605C185.021 43.7272 184.757 43.3405 184.571 42.9005C184.384 42.4538 184.291 41.9738 184.291 41.4605C184.291 40.9405 184.384 40.4605 184.571 40.0205C184.757 39.5805 185.017 39.1972 185.351 38.8705C185.684 38.5372 186.074 38.2805 186.521 38.1005C186.974 37.9138 187.467 37.8205 188.001 37.8205C188.527 37.8205 189.014 37.9138 189.461 38.1005C189.914 38.2805 190.307 38.5372 190.641 38.8705C190.981 39.1972 191.244 39.5838 191.431 40.0305C191.617 40.4705 191.711 40.9505 191.711 41.4705C191.711 41.9838 191.617 42.4638 191.431 42.9105C191.244 43.3505 190.984 43.7372 190.651 44.0705C190.317 44.3972 189.924 44.6538 189.471 44.8405C189.024 45.0272 188.541 45.1205 188.021 45.1205ZM188.001 43.6905C188.421 43.6905 188.787 43.5972 189.101 43.4105C189.421 43.2238 189.667 42.9638 189.841 42.6305C190.014 42.2905 190.101 41.9005 190.101 41.4605C190.101 41.1272 190.051 40.8272 189.951 40.5605C189.851 40.2872 189.707 40.0538 189.521 39.8605C189.334 39.6605 189.111 39.5105 188.851 39.4105C188.597 39.3038 188.314 39.2505 188.001 39.2505C187.581 39.2505 187.211 39.3438 186.891 39.5305C186.577 39.7105 186.334 39.9672 186.161 40.3005C185.987 40.6272 185.901 41.0138 185.901 41.4605C185.901 41.7938 185.951 42.0972 186.051 42.3705C186.151 42.6438 186.291 42.8805 186.471 43.0805C186.657 43.2738 186.881 43.4238 187.141 43.5305C187.401 43.6372 187.687 43.6905 188.001 43.6905ZM192.707 45.0005V37.9405H193.807L194.277 39.3505V45.0005H192.707ZM197.577 45.0005L193.417 39.6705L193.807 37.9405L197.967 43.2705L197.577 45.0005ZM197.577 45.0005L197.157 43.5905V37.9405H198.727V45.0005H197.577Z" fill="white"/>
<path d="M212.357 40.0005H202.357V41.0005H212.357V40.0005Z" fill="white"/>
<path d="M95.9974 22.27V18.79H100.467C101.407 18.79 102.127 18.55 102.627 18.07C103.147 17.59 103.407 16.94 103.407 16.12C103.407 15.36 103.157 14.73 102.657 14.23C102.157 13.73 101.437 13.48 100.497 13.48H95.9974V9.82H101.037C102.437 9.82 103.667 10.09 104.727 10.63C105.787 11.15 106.617 11.88 107.217 12.82C107.817 13.76 108.117 14.84 108.117 16.06C108.117 17.3 107.817 18.39 107.217 19.33C106.617 20.25 105.777 20.97 104.697 21.49C103.617 22.01 102.347 22.27 100.887 22.27H95.9974ZM92.3974 31V9.82H97.1074V31H92.3974ZM103.917 31L97.3174 21.88L101.637 20.71L109.497 31H103.917ZM121.819 31.33C120.079 31.33 118.539 30.96 117.199 30.22C115.879 29.48 114.839 28.46 114.079 27.16C113.339 25.84 112.969 24.34 112.969 22.66V9.82H117.709V22.93C117.709 23.77 117.889 24.5 118.249 25.12C118.609 25.74 119.099 26.22 119.719 26.56C120.359 26.88 121.059 27.04 121.819 27.04C122.619 27.04 123.319 26.88 123.919 26.56C124.519 26.22 124.989 25.75 125.329 25.15C125.689 24.53 125.869 23.8 125.869 22.96V9.82H130.609V22.69C130.609 24.37 130.239 25.86 129.499 27.16C128.759 28.46 127.729 29.48 126.409 30.22C125.089 30.96 123.559 31.33 121.819 31.33ZM136.163 31V9.82H140.873V31H136.163ZM139.763 22.69V18.64H150.353V22.69H139.763ZM139.763 13.87V9.82H150.833V13.87H139.763ZM155.659 31V9.82H160.369V31H155.659ZM159.289 31V26.86H169.759V31H159.289ZM174.275 31V9.82H178.985V31H174.275ZM177.875 31V26.92H189.485V31H177.875ZM177.875 22.15V18.22H188.435V22.15H177.875ZM177.875 13.87V9.82H189.335V13.87H177.875ZM207.972 31L202.062 21.55H201.492L193.332 9.82H198.942L204.762 18.7H205.332L213.492 31H207.972ZM192.942 31L200.772 19.66L204.402 21.7L198.312 31H192.942ZM205.512 21.01L201.882 18.97L207.762 9.82H213.132L205.512 21.01Z" fill="white"/>
<path d="M19.1957 38.3138H16.7498V40.6547H19.1957V38.3138Z" fill="white"/>
<path d="M19.1957 41.4097H16.7498V43.7506H19.1957V41.4097Z" fill="white"/>
<path d="M22.4303 38.3139H19.9844V40.6548H22.4303V38.3139Z" fill="white"/>
<path d="M22.4303 41.4097H19.9844V43.7506H22.4303V41.4097Z" fill="white"/>
<path d="M55.2374 15.5809C55.2374 18.1002 54.608 20.4684 53.5065 22.5769L40.1736 12.3088L25.1955 23.8635C23.6075 21.468 22.6924 18.6335 22.6924 15.5802C22.6924 6.98233 29.9882 0 38.972 0C47.9559 0.000719605 55.2374 6.98305 55.2374 15.5809Z" fill="white"/>
<path d="M80.3575 44.9999L74.9017 40.7996V38.0233C74.9017 35.6227 76.695 34.6124 76.695 34.6124H70.2421C70.2421 34.6124 72.0301 35.6227 72.0301 38.0233V38.5918L68.4255 35.8156L67.8081 35.3356L65.8013 33.7956C65.8126 33.5697 65.8126 33.3927 65.8013 33.2934C65.7321 32.8738 65.79 32.1175 65.7088 31.5937C65.6111 31.0691 65.9336 30.882 65.7434 29.6622C65.5532 28.4367 65.8013 28.4483 65.7547 28.0064C65.7088 27.5595 66.1005 27.6142 66.0374 27.2724C65.9915 26.9414 66.3028 26.406 66.3028 26.406C67.3525 24.8056 66.9487 23.9939 66.7818 23.8449C66.6261 23.7068 66.5915 23.7399 66.5397 23.5355C66.4818 23.3204 66.3148 23.4636 66.0667 23.3427C65.8013 23.216 65.9457 22.962 65.8133 22.9893C65.681 23.0224 65.4674 22.8404 65.4674 22.8404C64.8449 21.9905 62.4688 21.2731 62.1748 21.2731C61.8868 21.2731 61.6846 21.2292 61.1191 21.0083C60.5597 20.7823 59.8792 20.8154 59.8792 20.8154C59.6258 20.8046 59.1875 20.0706 59.1875 20.0706C58.3972 19.2373 57.2904 20.0044 57.2904 20.0044C56.6099 20.6118 57.2791 21.5832 57.2791 21.5832C57.2272 21.7214 56.7603 22.3115 56.7603 22.3115C57.2393 22.5547 57.625 21.9581 57.625 21.9581C58.3513 23.2383 58.6747 22.7583 58.7438 22.6921C58.819 22.6202 58.9108 22.7029 58.9108 22.7029C58.9108 22.7029 58.9108 22.7029 58.8762 23.0786C58.8416 23.4542 58.807 23.5916 58.7093 23.6744C58.5995 23.7514 58.3514 24.0169 58.1498 24.4249C57.931 24.8502 57.5498 24.679 57.5498 24.679C57.5498 24.679 57.2265 24.5739 56.9791 24.6351C56.8581 24.6682 56.6678 24.6243 56.5001 24.5746L56.3445 24.4422L56.2986 24.4034L56.1084 24.2436L55.9761 24.1335L55.8437 24.0177L55.7979 23.9845L55.7866 23.9738C55.7234 23.9133 55.6197 23.8579 55.6542 23.7643C55.6776 23.7312 55.7121 23.6981 55.7347 23.665C55.7753 23.6262 55.8212 23.5931 55.8558 23.56C55.9016 23.5269 55.9535 23.5046 56.0001 23.483C56.0234 23.4556 56.046 23.4441 56.0693 23.4333C56.0806 23.4333 56.1212 23.411 56.1325 23.411C56.0001 23.4002 55.8558 23.411 55.7114 23.4441C55.6422 23.4549 55.5557 23.4938 55.4978 23.5377C55.4399 23.6039 55.3655 23.6758 55.3076 23.742C55.273 23.7751 55.2099 23.8356 55.2617 23.891C55.2617 23.9018 55.273 23.9018 55.273 23.9133L55.2324 23.9464C55.2324 23.9572 55.2211 23.9738 55.2091 23.9853C55.1858 24.0076 55.1745 24.0184 55.1399 24.0076C55.1166 24.0076 55.1054 23.9968 55.0768 24.0184C55.0422 24.0292 55.0189 24.0623 55.0076 24.0846L54.9617 24.1342C54.9505 24.145 54.9505 24.1673 54.9505 24.1896C54.9617 24.2227 54.985 24.2335 55.0084 24.2558L55.1753 24.394C55.1866 24.4048 55.1986 24.4163 55.2211 24.4048C55.2324 24.4048 55.2445 24.394 55.2617 24.394C55.273 24.3717 55.2963 24.3501 55.3196 24.3278C55.3309 24.317 55.3542 24.2947 55.3655 24.2674C55.3888 24.245 55.3542 24.2119 55.3422 24.1904C55.3189 24.1465 55.3655 24.1242 55.3881 24.0968C55.3881 24.0968 55.3993 24.086 55.3993 24.0745C55.3993 24.0745 55.4106 24.0637 55.4279 24.0637C55.4279 24.0637 55.4279 24.0637 55.4392 24.0637C55.4738 24.0745 55.4851 24.1076 55.5196 24.1357L55.8655 24.417L56.0558 24.5768L56.0964 24.6156L56.1422 24.6595C56.1881 24.7481 56.2866 24.897 56.3783 25.1618C56.5919 25.7303 56.9438 25.3993 57.1686 25.5259C57.4047 25.6641 57.5145 25.9289 57.5145 25.9289C57.5145 25.9289 57.2032 26.0059 57.0821 26.1002C56.9784 26.1995 56.6325 26.293 56.6325 26.293C56.6325 26.293 56.7596 26.4859 56.4422 26.5197H56.3445L40.1731 14.059L19.758 29.8054L17.0992 27.7524L16.6954 27.4653L16.4533 27.2444C16.3669 27.1782 16.2691 27.1062 16.1533 27.0234C15.3976 26.4938 14.8788 26.0685 15.1097 25.5058C15.2367 25.2079 15.4676 24.9316 15.6977 24.6559C15.7841 24.5732 15.8533 24.4962 15.9112 24.4134C16.3669 23.878 16.7533 23.5082 17.1278 23.2045C17.6293 22.8073 18.085 22.4928 18.5579 22.2496C18.8113 22.1114 19.0715 21.9733 19.3136 21.8524C19.3888 21.825 19.4865 21.7696 19.5843 21.7142C19.7166 21.648 19.8723 21.5652 19.9595 21.5379L22.0641 21.0025L19.9016 20.8643C18.2985 20.7542 16.6548 20.9471 15.1382 21.3997C14.4232 21.6206 13.3908 21.974 12.6644 22.6749C11.8629 23.4528 11.1478 24.3307 10.617 25.015C10.5764 25.0704 10.5192 25.1366 10.4613 25.2079C10.0749 25.644 9.45755 26.3672 10.0861 27.1227C10.0861 27.1335 10.0749 27.1501 10.0749 27.1501C10.029 27.1889 9.9884 27.2163 9.95982 27.2602L9.87335 27.3537C9.7756 27.4638 9.65981 27.5855 9.58537 27.7236C9.41844 27.9827 9.36055 27.9553 9.27408 27.9445C8.9861 27.8618 8.61691 27.7625 8.2417 28.0273C7.95898 28.2151 7.75747 28.4742 7.5725 28.7224C7.51461 28.7886 7.45746 28.8606 7.39956 28.9433L6.99578 29.4348C6.74239 29.722 6.6672 30.1192 6.78224 30.4783C6.91458 30.8035 7.18602 30.9971 7.38227 31.1461C7.45746 31.2015 7.5146 31.2396 7.58378 31.3116L9.42897 32.7076C9.75756 32.9782 10.0749 33.0775 10.4155 32.9782C10.617 32.912 10.7614 32.7738 10.8884 32.6356L11.1478 32.3377C11.2629 32.1996 11.3787 32.0779 11.4877 31.9405L11.6606 31.7476C11.805 31.5821 11.9607 31.4051 12.0757 31.2396C12.393 30.7647 12.093 30.3674 11.9028 30.1192C11.8622 30.0638 11.8163 30.0091 11.7877 29.9537C11.7358 29.8709 11.7358 29.8321 12.0186 29.5449C12.0765 29.4895 12.1336 29.4348 12.1915 29.3686C12.2607 29.2859 12.3359 29.1758 12.405 29.093V29.0822C12.5494 29.1592 12.6757 29.27 12.8201 29.4082C12.9178 29.5018 13.0216 29.5845 13.1374 29.6838L16.5398 32.283L0 44.9992H9.95982V42.3057L19.758 34.7606L29.5561 42.3057V44.9992H39.516L22.9762 32.2665L40.1731 19.0589L56.7362 31.7915L57.3821 32.2665L40.8311 44.9992H50.7909V42.3057L60.589 34.7887L60.6003 34.7721L70.3985 42.3057V44.9992H80.3575V44.9999ZM57.4799 25.1913C57.4686 24.8603 57.6701 25.2352 58.0047 25.2136C58.3506 25.1805 58.4085 25.3518 58.5529 25.2359C58.6852 25.1258 58.5987 25.6612 58.1258 25.6497C57.6355 25.649 57.4912 25.3842 57.4799 25.1913ZM60.571 25.4561C60.0003 25.7987 59.7462 27.6365 59.5792 27.8567C59.4469 28.0496 59.51 28.4641 59.4867 28.9333L56.9032 26.9464C56.9144 26.9299 56.9378 26.9357 56.9663 26.9407C57.122 26.9846 57.1911 27.2386 57.2603 27.0342C57.3468 26.8248 57.8483 26.7579 58.2062 26.5874C58.5641 26.4053 58.6619 26.2448 58.6619 26.2448C59.7574 26.234 60.5364 24.1752 60.5364 24.1752C60.7154 25.0417 61.5628 24.7711 61.5748 24.9035C61.5974 25.0532 61.1304 25.1251 60.571 25.4561ZM64.2794 32.6256L61.3379 30.3574C61.3267 30.3185 61.3379 30.2746 61.3492 30.2192C61.4763 29.7061 61.2049 29.4795 61.3838 29.3636C61.574 29.2369 61.453 28.7347 61.4297 28.2986C61.4064 27.8791 61.7643 27.217 61.7643 27.0896C61.7756 26.963 62.4215 27.2825 62.935 27.0896C63.4486 26.8968 63.523 26.3118 63.6268 26.8025C63.7365 27.2825 63.7478 27.9561 63.8057 28.7008C63.8689 29.4406 64.2501 28.6289 64.1749 30.8589C64.1516 31.7369 64.2441 32.3104 64.3366 32.6695L64.2794 32.6256Z" fill="white"/>
<path d="M39.6283 25.4299H35.8936V29.0035H39.6283V25.4299Z" fill="white"/>
<path d="M39.6283 30.1562H35.8936V33.7304H39.6283V30.1562Z" fill="white"/>
<path d="M44.5658 25.4301H40.8318V29.0036H44.5658V25.4301Z" fill="white"/>
<path d="M44.5658 30.1562H40.8318V33.7304H44.5658V30.1562Z" fill="white"/>
<path d="M60.6725 38.6909H58.2266V41.0318H60.6725V38.6909Z" fill="white"/>
<path d="M60.6725 41.7868H58.2266V44.1277H60.6725V41.7868Z" fill="white"/>
<path d="M63.9076 38.691H61.4617V41.0319H63.9076V38.691Z" fill="white"/>
<path d="M63.9076 41.7868H61.4617V44.1277H63.9076V41.7868Z" fill="white"/>
<path d="M76.6904 27.8575V34.1275H70.2397V27.8575H71.2954L71.5195 32.019L71.7774 27.8575H73.2985L73.4564 30.7856L73.6399 27.8575H75.5099L75.7513 32.2097L76.0092 27.8575H76.6904Z" fill="white"/>
</svg>
